<?xml version="1.0" encoding="UTF-8" standalone="no"?>
<!-- Created with Inkscape (http://www.inkscape.org/) -->

<svg
   xmlns:dc="http://purl.org/dc/elements/1.1/"
   xmlns:cc="http://creativecommons.org/ns#"
   xmlns:rdf="http://www.w3.org/1999/02/22-rdf-syntax-ns#"
   xmlns:svg="http://www.w3.org/2000/svg"
   xmlns="http://www.w3.org/2000/svg"
   xmlns:sodipodi="http://sodipodi.sourceforge.net/DTD/sodipodi-0.dtd"
   xmlns:inkscape="http://www.inkscape.org/namespaces/inkscape"
   width="210mm"
   height="297mm"
   id="svg2"
   version="1.1"
   inkscape:version="0.48.0 r9654"
   sodipodi:docname="shallow_water_sketch.svg"
   inkscape:export-filename="D:\Lectures\DGL_System_Erde\Lectures\10_Shallow_Water_Equation_2D\images\shallow_water_sketch.png"
   inkscape:export-xdpi="200"
   inkscape:export-ydpi="200">
  <sodipodi:namedview
     id="base"
     pagecolor="#ffffff"
     bordercolor="#666666"
     borderopacity="1.0"
     inkscape:pageopacity="0.0"
     inkscape:pageshadow="2"
     inkscape:zoom="0.49497475"
     inkscape:cx="998.09656"
     inkscape:cy="802.84271"
     inkscape:document-units="px"
     inkscape:current-layer="layer1"
     showgrid="true"
     inkscape:snap-grids="false"
     inkscape:snap-to-guides="false"
     inkscape:window-width="1920"
     inkscape:window-height="1017"
     inkscape:window-x="-8"
     inkscape:window-y="-8"
     inkscape:window-maximized="1">
    <inkscape:grid
       id="grid2985"
       type="xygrid" />
  </sodipodi:namedview>
  <defs
     id="defs4">
    <marker
       style="overflow:visible;"
       id="Arrow1Mend"
       refX="0.0"
       refY="0.0"
       orient="auto"
       inkscape:stockid="Arrow1Mend">
      <path
         transform="scale(0.4) rotate(180) translate(10,0)"
         style="fill-rule:evenodd;stroke:#000000;stroke-width:1.0pt;marker-start:none;"
         d="M 0.0,0.0 L 5.0,-5.0 L -12.5,0.0 L 5.0,5.0 L 0.0,0.0 z "
         id="path3775" />
    </marker>
    <marker
       style="overflow:visible"
       id="Arrow1Mstart"
       refX="0.0"
       refY="0.0"
       orient="auto"
       inkscape:stockid="Arrow1Mstart">
      <path
         transform="scale(0.4) translate(10,0)"
         style="fill-rule:evenodd;stroke:#000000;stroke-width:1.0pt;marker-start:none"
         d="M 0.0,0.0 L 5.0,-5.0 L -12.5,0.0 L 5.0,5.0 L 0.0,0.0 z "
         id="path3772" />
    </marker>
    <marker
       style="overflow:visible"
       id="Arrow1Mend-9"
       refX="0"
       refY="0"
       orient="auto"
       inkscape:stockid="Arrow1Mend">
      <path
         transform="matrix(-0.4,0,0,-0.4,-4,0)"
         style="fill-rule:evenodd;stroke:#000000;stroke-width:1pt;marker-start:none"
         d="M 0,0 5,-5 -12.5,0 5,5 0,0 z"
         id="path3775-2"
         inkscape:connector-curvature="0" />
    </marker>
    <marker
       style="overflow:visible"
       id="Arrow1Mend-4"
       refX="0"
       refY="0"
       orient="auto"
       inkscape:stockid="Arrow1Mend">
      <path
         transform="matrix(-0.4,0,0,-0.4,-4,0)"
         style="fill-rule:evenodd;stroke:#000000;stroke-width:1pt;marker-start:none"
         d="M 0,0 5,-5 -12.5,0 5,5 0,0 z"
         id="path3775-1"
         inkscape:connector-curvature="0" />
    </marker>
    <marker
       style="overflow:visible"
       id="Arrow1Mstarty"
       refX="0.0"
       refY="0.0"
       orient="auto"
       inkscape:stockid="Arrow1Mstarty">
      <path
         transform="scale(0.4) translate(10,0)"
         style="marker-start:none;stroke:#ff0000;stroke-width:1.0pt;fill:#ff0000;fill-rule:evenodd"
         d="M 0.0,0.0 L 5.0,-5.0 L -12.5,0.0 L 5.0,5.0 L 0.0,0.0 z "
         id="path5412" />
    </marker>
    <marker
       style="overflow:visible"
       id="Arrow1Mend-4H"
       refX="0"
       refY="0"
       orient="auto"
       inkscape:stockid="Arrow1Mend-4H">
      <path
         transform="matrix(-0.4,0,0,-0.4,-4,0)"
         style="marker-start:none;stroke:#ff0000;stroke-width:1pt;fill:#ff0000;fill-rule:evenodd"
         d="M 0,0 5,-5 -12.5,0 5,5 0,0 z"
         id="path5415"
         inkscape:connector-curvature="0" />
    </marker>
    <marker
       style="overflow:visible"
       id="Arrow1Mstartq"
       refX="0.0"
       refY="0.0"
       orient="auto"
       inkscape:stockid="Arrow1Mstartq">
      <path
         transform="scale(0.4) translate(10,0)"
         style="marker-start:none;stroke:#009e00;stroke-width:1.0pt;fill:#009e00;fill-rule:evenodd"
         d="M 0.0,0.0 L 5.0,-5.0 L -12.5,0.0 L 5.0,5.0 L 0.0,0.0 z "
         id="path5876" />
    </marker>
    <marker
       style="overflow:visible"
       id="Arrow1Mend-4W"
       refX="0"
       refY="0"
       orient="auto"
       inkscape:stockid="Arrow1Mend-4W">
      <path
         transform="matrix(-0.4,0,0,-0.4,-4,0)"
         style="marker-start:none;stroke:#009e00;stroke-width:1pt;fill:#009e00;fill-rule:evenodd"
         d="M 0,0 5,-5 -12.5,0 5,5 0,0 z"
         id="path5879"
         inkscape:connector-curvature="0" />
    </marker>
    <marker
       style="overflow:visible;"
       id="Arrow1Mendi"
       refX="0.0"
       refY="0.0"
       orient="auto"
       inkscape:stockid="Arrow1Mendi">
      <path
         transform="scale(0.4) rotate(180) translate(10,0)"
         style="marker-start:none;stroke:#0000ff;stroke-width:1.0pt;fill:#0000ff;fill-rule:evenodd"
         d="M 0.0,0.0 L 5.0,-5.0 L -12.5,0.0 L 5.0,5.0 L 0.0,0.0 z "
         id="path5962" />
    </marker>
  </defs>
  <metadata
     id="metadata7">
    <rdf:RDF>
      <cc:Work
         rdf:about="">
        <dc:format>image/svg+xml</dc:format>
        <dc:type
           rdf:resource="http://purl.org/dc/dcmitype/StillImage" />
        <dc:title />
      </cc:Work>
    </rdf:RDF>
  </metadata>
  <g
     id="layer1"
     inkscape:groupmode="layer"
     inkscape:label="Ebene 1">
    <path
       inkscape:connector-curvature="0"
       id="path2987"
       d="m 40.030825,92.362183 c 1884.278575,0 1884.278575,0 1884.278575,0"
       style="fill:none;stroke:#000000;stroke-width:5.96164894;stroke-linecap:butt;stroke-linejoin:miter;stroke-miterlimit:4;stroke-opacity:1;stroke-dasharray:none;marker-end:url(#Arrow1Mend-4)" />
    <path
       inkscape:connector-curvature="0"
       id="path3759"
       d="m 40,532.36218 c 3.809524,1.90476 7.474025,4.13247 11.428571,5.71429 1.357873,0.54315 19.252449,0 20,0 14.285715,0 28.571429,0 42.857139,0 3.80953,0 7.64847,-0.47251 11.42858,0 3.89644,0.48705 7.61904,1.90476 11.42857,2.85714 3.80952,0.95238 7.75182,1.47836 11.42857,2.85714 3.98799,1.4955 7.44058,4.21879 11.42857,5.71429 3.67675,1.37878 7.70331,1.61539 11.42857,2.85714 13.1418,4.3806 24.58029,11.5595 37.14286,17.14286 4.68669,2.08297 9.59902,3.63131 14.28571,5.71429 10.87493,4.8333 10.80727,5.30008 20,11.42857 2.85715,1.90476 5.41522,4.36162 8.57143,5.71428 20.94083,8.97465 2.08066,-4.41387 22.85714,8.57143 0.42203,0.26377 22.64417,17.03637 22.85715,17.14286 3.5122,1.7561 8.01918,0.90892 11.42857,2.85714 3.50823,2.00471 5.46734,5.98469 8.57143,8.57143 2.63796,2.1983 5.71428,3.80952 8.57143,5.71429 2.85714,1.90476 5.62692,3.94758 8.57142,5.71428 1.82611,1.09567 4.01062,1.57939 5.71429,2.85714 2.15499,1.61625 3.40442,4.32837 5.71429,5.71429 2.5825,1.5495 6.21969,0.97575 8.57142,2.85714 2.6814,2.14512 3.28619,6.14333 5.71429,8.57143 1.50585,1.50585 3.88818,1.76148 5.71429,2.85714 2.9445,1.76671 5.89003,3.56918 8.57142,5.71429 4.20692,3.36553 7.61905,7.61905 11.42858,11.42857 1.90476,1.90476 3.47295,4.22007 5.71428,5.71429 3.54385,2.36256 8.19476,2.94245 11.42857,5.71428 3.61551,3.09901 5.20426,8.0614 8.57143,11.42857 2.42811,2.42811 5.89004,3.56918 8.57143,5.71429 4.20692,3.36553 7.28979,7.97959 11.42857,11.42857 3.6582,3.0485 7.71015,5.59669 11.42857,8.57143 1.05173,0.84138 1.90476,1.90476 2.85715,2.85714 4.7619,4.76191 9.52381,9.52381 14.28571,14.28572 0.95238,0.95238 1.73648,2.11003 2.85714,2.85714 1.77193,1.18128 3.94236,1.67586 5.71429,2.85714 4.20421,2.80281 7.22436,8.62577 11.42857,11.42857 0.79243,0.52829 2.06471,-0.52828 2.85714,0 2.24133,1.49422 3.5593,4.09805 5.71429,5.71429 1.70367,1.27775 4.20844,1.3513 5.71428,2.85714 0.67344,0.67344 -0.67343,2.18371 0,2.85715 3.47996,3.47995 6.38346,1.33834 8.57143,5.71428 0,7.61905 -0.95238,-0.95238 2.85715,2.85714 0.67343,0.67344 -0.67344,2.18371 0,2.85715 0.67343,0.67343 2.0053,-0.42592 2.85714,0 1.20468,0.60234 1.65246,2.2548 2.85714,2.85714 0.85184,0.42592 2.18371,-0.67344 2.85714,0 0.67344,0.67343 -0.42591,2.00531 0,2.85714 3.15865,6.3173 1.77327,0.88664 5.71429,2.85715 11.89074,5.94537 -3.05439,-0.19725 2.85714,5.71428 1.34687,1.34687 4.01062,-0.85183 5.71429,0 1.20468,0.60234 1.65246,2.25481 2.85714,2.85714 1.70367,0.85184 4.36742,-1.34687 5.71429,0 0.67343,0.67344 -0.67344,2.18371 0,2.85715 0.12949,0.12949 12.93857,0 14.28571,0 1.90476,0 3.90727,-0.60234 5.71429,0 2.0203,0.67343 3.69398,2.1837 5.71428,2.85714 0.90351,0.30117 1.90476,0 2.85715,0 2.27987,0 12.57159,-0.57138 14.28571,0 2.02031,0.67343 3.69398,2.18371 5.71429,2.85714 1.79329,0.59777 9.12847,0 11.42857,0 8.57143,0 17.14285,0 25.71428,0 9.52381,0 19.04762,0 28.57143,0 0.97336,0 9.88227,0.51544 11.42857,0 2.02031,-0.67343 3.69398,-2.18371 5.71429,-2.85714 2.71052,-0.90351 5.79959,0.69296 8.57143,0 2.066,-0.5165 3.69398,-2.18371 5.71428,-2.85714 1.80702,-0.60234 3.90727,0.60234 5.71429,0 2.0203,-0.67344 3.64828,-2.34064 5.71428,-2.85715 1.84789,-0.46197 3.8664,0.46198 5.71429,0 13.79698,-3.44924 -0.1416,-1.35777 8.57143,-5.71428 1.84596,-0.92298 12.43975,0.92298 14.28571,0 1.20468,-0.60234 1.90476,-1.90476 2.85715,-2.85714 1.90476,0 3.90727,0.60233 5.71428,0 1.27775,-0.42592 1.57939,-2.43123 2.85714,-2.85715 2.71053,-0.90351 5.86091,0.90351 8.57143,0 20.69548,-6.89849 -4.50459,0.82373 8.57143,-5.71428 0.85184,-0.42592 1.95364,0.30117 2.85714,0 2.02031,-0.67344 3.69398,-2.18371 5.71429,-2.85715 3.03603,-1.01201 8.39254,1.01202 11.42857,0 1.27775,-0.42591 1.65247,-2.2548 2.85714,-2.85714 1.70368,-0.85183 3.90727,0.60234 5.71429,0 2.02031,-0.67343 3.69398,-2.18371 5.71429,-2.85714 0.9035,-0.30117 1.95363,0.30117 2.85714,0 2.0203,-0.67344 3.69398,-2.18371 5.71428,-2.85714 0.90351,-0.30117 2.00531,0.42591 2.85715,0 1.20467,-0.60234 1.65246,-2.25481 2.85714,-2.85715 0.85184,-0.42592 1.90476,0 2.85714,0 1.90476,0 3.8664,0.46198 5.71429,0 2.066,-0.5165 3.69398,-2.18371 5.71428,-2.85714 0.90351,-0.30117 1.90477,0 2.85715,0 1.90476,-0.95238 3.69398,-2.18371 5.71428,-2.85714 1.80702,-0.60234 3.80953,0 5.71429,0 4.7619,0 9.52381,0 14.28571,0 5.71429,0 11.42857,0 17.14286,0 1.28674,0 7.7019,-0.43477 8.57143,0 1.20468,0.60234 1.57939,2.43122 2.85714,2.85714 1.80702,0.60234 3.80953,0 5.71429,0 2.85714,0 5.79959,-0.69296 8.57143,0 1.30665,0.32666 1.65246,2.2548 2.85714,2.85714 0.85183,0.42592 1.9332,-0.23098 2.85714,0 2.92177,0.73045 5.87769,1.51028 8.57143,2.85715 1.20468,0.60233 1.65247,2.2548 2.85714,2.85714 1.28913,0.64456 8.27955,-0.14594 8.57143,0 0.85184,0.42592 -0.67343,2.18371 0,2.85714 1.34687,1.34687 3.90727,-0.60234 5.71429,0 2.0203,0.67344 3.69398,2.18371 5.71428,2.85714 0.90351,0.30117 2.00531,-0.42591 2.85715,0 1.20467,0.60234 1.65246,2.25481 2.85714,2.85715 0.85183,0.42591 2.18371,-0.67344 2.85714,0 0.67344,0.67343 -0.85183,2.43122 0,2.85714 1.70367,0.85184 3.90727,-0.60234 5.71429,0 2.5555,0.85184 3.10097,5.06096 5.71428,5.71429 2.77184,0.69295 5.76977,-0.56034 8.57143,0 2.08823,0.41764 3.69398,2.1837 5.71429,2.85714 0.90351,0.30117 1.95363,-0.30117 2.85714,0 10.35797,3.45266 2.03342,1.35561 8.57143,5.71428 9.7126,6.47507 1.5323,0.38308 11.42857,2.85715 4.13201,1.033 7.38796,4.36741 11.42857,5.71428 3.03604,1.01201 8.39254,-1.01201 11.42853,0 1.2778,0.42592 1.9048,1.90476 2.8572,2.85715 4.2526,4.25261 3.2209,4.07275 11.4286,5.71428 21.6775,4.33551 -5.968,-4.41254 8.5714,2.85714 0.8518,0.42592 1.9047,0 2.8571,0 1.9048,0 3.9073,-0.60233 5.7143,0 1.2778,0.42592 1.5505,2.53048 2.8572,2.85715 2.7718,0.69296 5.9186,-1.06112 8.5714,0 2.5011,1.00043 3.2132,4.71385 5.7143,5.71428 2.6528,1.06112 5.7531,-0.46971 8.5714,0 2.9707,0.49512 5.59,2.43123 8.5714,2.85715 3.7713,0.53874 7.6191,0 11.4286,0 0.9524,0 1.9332,-0.23099 2.8571,0 2.9218,0.73044 5.6183,2.2665 8.5715,2.85714 3.7355,0.74711 7.619,0 11.4285,0 8.5715,0 17.1429,0 25.7143,0 3.8096,0 7.6709,-0.62628 11.4286,0 2.9707,0.49512 5.6007,2.36202 8.5714,2.85714 2.9291,0.48818 23.7177,0.22184 25.7143,0 4.8265,-0.53628 9.467,-2.2548 14.2857,-2.85714 5.6702,-0.70877 11.5063,0.93942 17.1429,0 2.9707,-0.49512 5.6496,-2.1267 8.5714,-2.85714 0.924,-0.23099 1.9536,0.30116 2.8572,0 4.0406,-1.34687 7.2965,-4.68129 11.4285,-5.71429 3.6375,-0.90938 10.5751,0.92765 14.2857,0 23.7815,-5.94537 -3.4488,0.19724 14.2858,-5.71429 0.9035,-0.30117 1.9047,0 2.8571,0 3.5185,0 5.2884,0.42592 8.5714,-2.85714 0.6735,-0.67343 -0.6734,-2.18371 0,-2.85714 0.6735,-0.67344 2.1837,0.67343 2.8572,0 0.6734,-0.67344 -0.6735,-2.18371 0,-2.85714 0.6734,-0.67344 2.0053,0.42591 2.8571,0 1.2047,-0.60234 1.7365,-2.11004 2.8572,-2.85715 1.7719,-1.18128 4.2084,-1.35129 5.7142,-2.85714 3.8096,-3.80952 -6.0609,-2.7416 2.8572,-5.71429 1.807,-0.60233 4.0106,0.85184 5.7143,0 0.8518,-0.42591 -0.6735,-2.1837 0,-2.85714 0.6734,-0.67343 2.1837,0.67344 2.8571,0 1.5059,-1.50585 1.3513,-4.20844 2.8572,-5.71428 0.6734,-0.67344 2.1837,0.67343 2.8571,0 0.6734,-0.67344 -0.6734,-2.18371 0,-2.85715 1.5058,-1.50584 3.9424,-1.67586 5.7143,-2.85714 2.6009,-1.73393 6.039,-7.30523 8.5714,-8.57143 0.8518,-0.42592 2.0053,0.42592 2.8572,0 11.8907,-5.94537 -3.0544,0.19725 2.8571,-5.71428 0.6734,-0.67344 2.0053,0.42591 2.8571,0 1.2047,-0.60234 1.9048,-1.90477 2.8572,-2.85715 0.9524,-0.95238 2.2548,-1.65246 2.8571,-2.85714 1.9705,-3.94102 -3.4601,-2.55564 2.8572,-5.71429 0.8518,-0.42591 2.0053,0.42592 2.8571,0 1.2047,-0.60233 1.9048,-1.90476 2.8572,-2.85714 0.9523,-0.95238 2.2548,-1.65246 2.8571,-2.85714 0.4259,-0.85184 -0.6734,-2.18371 0,-2.85714 0.6734,-0.67344 2.1837,0.67343 2.8571,0 0.6735,-0.67344 -0.6734,-2.18371 0,-2.85715 0.6735,-0.67343 1.9048,0 2.8572,0 0.9524,-1.90476 1.3513,-4.20844 2.8571,-5.71428 5.9116,-5.91153 -0.2311,9.0336 5.7143,-2.85715 0.4259,-0.85183 -0.4259,-2.0053 0,-2.85714 0.6024,-1.20468 1.9048,-1.90476 2.8572,-2.85714 0.9523,-0.95238 1.9047,-1.90476 2.8571,-2.85714 1.5042,-1.50419 7.0455,-7.80846 8.5714,-8.57143 0.8519,-0.42592 2.1837,0.67343 2.8572,0 0.6734,-0.67344 -0.6735,-2.18371 0,-2.85715 0.6734,-0.67343 1.9047,0 2.8571,0 1.9048,-0.95238 4.2085,-1.35129 5.7143,-2.85714 1.5058,-1.50585 1.3513,-4.20844 2.8571,-5.71428 0.6735,-0.67344 1.9537,0.30116 2.8572,0 2.0203,-0.67344 3.9423,-1.67586 5.7143,-2.85715 2.2413,-1.49422 3.3049,-4.50961 5.7143,-5.71428 0.8518,-0.42592 2.1837,0.67343 2.8571,0 0.6734,-0.67344 -0.6734,-2.18371 0,-2.85715 0.6734,-0.67343 2.0053,0.42592 2.8571,0 1.2047,-0.60233 1.6525,-2.2548 2.8572,-2.85714 0.8518,-0.42592 2.0053,0.42592 2.8571,0 2.4094,-1.20468 3.305,-4.50961 5.7143,-5.71428 0.8518,-0.42592 2.0053,0.42591 2.8572,0 9.4759,-9.47595 -2.6938,1.34687 5.7142,-2.85715 13.0761,-6.53801 -12.124,1.18421 8.5715,-5.71428 0.9035,-0.30117 2.0053,0.42591 2.8571,0 1.2047,-0.60234 1.6525,-2.25481 2.8572,-2.85715 1.8709,-0.93545 11.7502,0.84518 14.2857,0 2.0203,-0.67343 3.694,-2.1837 5.7143,-2.85714 1.8511,-0.61706 11.9465,0 14.2857,0 7.619,0 15.2381,0 22.8571,0 1.5263,0 13.468,0.40886 14.2857,0 1.2047,-0.60234 1.6525,-2.2548 2.8572,-2.85714 0.8518,-0.42592 1.9047,0 2.8571,0 2.3392,0 12.4345,0.61706 14.2857,0 2.0203,-0.67344 3.694,-2.18371 5.7143,-2.85714 1.7141,-0.57138 12.0059,0 14.2857,0 0.9524,0 1.9537,0.30116 2.8572,0 2.0203,-0.67344 3.6483,-2.34065 5.7143,-2.85715 2.1727,-0.54319 11.8931,0 14.2857,0 0.9524,0 1.9536,0.30117 2.8571,0 2.0203,-0.67343 3.694,-2.18371 5.7143,-2.85714 0.9035,-0.30117 2.0053,0.42592 2.8571,0 1.2047,-0.60234 1.6525,-2.2548 2.8572,-2.85714 0.8518,-0.42592 1.9047,0 2.8571,0 1.9048,0 3.9073,0.60234 5.7143,0 1.2778,-0.42592 1.6525,-2.25481 2.8572,-2.85715 0.8518,-0.42591 2.0053,0.42592 2.8571,0 1.2047,-0.60233 1.6525,-2.2548 2.8571,-2.85714 1.7037,-0.85183 4.0107,0.85184 5.7143,0 9.476,-9.47595 -2.6937,1.34687 5.7143,-2.85714 2.4094,-1.20468 3.1588,-4.86245 5.7143,-5.71429 1.807,-0.60234 4.1294,1.05657 5.7143,0 1.7719,-1.18128 1.3513,-4.20844 2.8571,-5.71428 0.6735,-0.67344 1.9537,0.30117 2.8572,0 20.6954,-6.89849 -4.5046,0.82372 8.5714,-5.71429 1.7037,-0.85183 4.3674,1.34687 5.7143,0 1.5058,-1.50585 1.0852,-4.533 2.8571,-5.71428 1.5849,-1.05658 3.9073,0.60233 5.7143,0 2.5555,-0.85184 3.3049,-4.50961 5.7143,-5.71429 0.8518,-0.42592 1.9536,0.30117 2.8571,0 20.6955,-6.89849 -4.5045,0.82372 8.5715,-5.71429 0.8518,-0.42591 1.9047,0 2.8571,0 1.9048,-0.95238 3.8095,-1.90476 5.7143,-2.85714 1.9048,-0.95238 3.9424,-1.67586 5.7143,-2.85714 1.1206,-0.74711 1.5794,-2.43123 2.8571,-2.85714 1.807,-0.60234 3.9073,0.60233 5.7143,0 1.2778,-0.42592 1.7365,-2.11004 2.8572,-2.85715 1.7719,-1.18128 3.9423,-1.67586 5.7142,-2.85714 3.2967,-2.1978 5.2748,-6.37363 8.5715,-8.57143 1.9047,-0.95238 3.8095,-1.90476 5.7143,-2.85714 0.9523,0 2.0053,0.42592 2.8571,0 1.2047,-0.60234 1.6525,-2.25481 2.8571,-2.85714 0.8519,-0.42592 2.1838,0.67343 2.8572,0 0.6734,-0.67344 -0.8518,-2.43123 0,-2.85715 1.7535,-0.87678 12.5146,0.88558 14.2857,0 1.2047,-0.60234 1.6525,-2.2548 2.8571,-2.85714 1.7958,-0.89789 9.6328,0.89789 11.4286,0 7.0612,-3.53058 -0.9862,-2.85714 5.7143,-2.85714 4.7619,0 9.5238,0 14.2857,0 0.9524,0 1.9048,0 2.8572,0 0.9523,0 2.0053,0.42591 2.8571,0 1.2047,-0.60234 1.6525,-2.25481 2.8571,-2.85715 0.8519,-0.42591 2.1838,0.67344 2.8572,0 0.6734,-0.67343 -0.4259,-2.0053 0,-2.85714 0.6023,-1.20468 1.9047,-1.90476 2.8571,-2.85714 0.9524,-0.95238 1.6525,-2.25481 2.8572,-2.85714 0.8518,-0.42592 2.1837,0.67343 2.8571,0 0.6734,-0.67344 -0.6734,-2.18371 0,-2.85715 0.6734,-0.67343 2.1837,0.67344 2.8572,0 1.3468,-1.34687 -1.3469,-4.36741 0,-5.71428 0.6734,-0.67344 2.1837,0.67343 2.8571,0 5.9115,-5.91153 -9.0336,0.23108 2.8571,-5.71429 0.8519,-0.42592 2.1838,0.67344 2.8572,0 0.6734,-0.67343 -0.4259,-2.00531 0,-2.85714 0.6023,-1.20468 2.2548,-1.65247 2.8571,-2.85714 0.4259,-0.85184 -0.4259,-2.00531 0,-2.85715 0.6024,-1.20467 2.2548,-1.65246 2.8572,-2.85714 0.4259,-0.85184 0,-1.90476 0,-2.85714 0.9524,-0.95238 2.2548,-1.65247 2.8571,-2.85715 0.8518,-1.70367 -1.3469,-4.36741 0,-5.71428 0.6734,-0.67344 2.1837,0.67343 2.8572,0 0.6734,-0.67344 -0.6735,-2.18371 0,-2.85714 0.6734,-0.67344 2.1837,0.67343 2.8571,0 0.6734,-0.67344 -0.4259,-2.00531 0,-2.85715 0.6023,-1.20467 2.2548,-1.65246 2.8571,-2.85714 0.426,-0.85184 0,-1.90476 0,-2.85714 0.9524,-0.95238 2.2548,-1.65247 2.8572,-2.85715 0.8518,-1.70367 -1.3469,-4.36741 0,-5.71428 0.6734,-0.67344 2.0053,0.42592 2.8571,0 2.4094,-1.20468 3.305,-4.50961 5.7143,-5.71429 0.8518,-0.42592 2.1837,0.67344 2.8572,0 1.3468,-1.34687 -1.3469,-4.36741 0,-5.71428 1.3468,-1.34687 4.3674,1.34687 5.7142,0 0.6735,-0.67344 -0.6734,-2.18371 0,-2.85715 1.3469,-1.34687 4.0107,0.85184 5.7143,0 13.1019,-6.55095 -9.7556,0 -2.8571,0 3.0117,0 5.6496,-2.1267 8.5714,-2.85714 1.1731,-0.29326 5.368,0.34634 5.7143,0 0.6734,-0.67343 -0.6734,-2.18371 0,-2.85714 1.3469,-1.34687 4.3674,1.34687 5.7143,0 0.6734,-0.67344 -0.6734,-2.18371 0,-2.85714 0.092,-0.0919 7.8785,0 8.5714,0 0.9524,0 1.9048,0 2.8572,0 0.9523,0 2.8571,-0.95239 2.8571,0 0,0.95238 -2.8571,0.95238 -2.8571,0 0,-1.34687 1.9047,-1.90477 2.8571,-2.85715"
       style="fill:none;stroke:#000000;stroke-width:5;stroke-linecap:butt;stroke-linejoin:miter;stroke-opacity:1;stroke-miterlimit:4;stroke-dasharray:none" />
    <path
       inkscape:connector-curvature="0"
       id="path3761"
       d="M 225.28262,841.36527 C 311.80901,664.53839 311.80901,664.53839 311.80901,664.53839"
       style="fill:none;stroke:#000000;stroke-width:7.63667488;stroke-linecap:butt;stroke-linejoin:miter;stroke-miterlimit:4;stroke-opacity:1;stroke-dasharray:none;marker-start:none;marker-end:url(#Arrow1Mend)" />
    <text
       sodipodi:linespacing="125%"
       id="text4575"
       y="912.36218"
       x="88.571426"
       style="font-size:64px;font-style:normal;font-weight:normal;line-height:125%;letter-spacing:0px;word-spacing:0px;fill:#000000;fill-opacity:1;stroke:none;font-family:Sans"
       xml:space="preserve"><tspan
         y="912.36218"
         x="88.571426"
         id="tspan4577"
         sodipodi:role="line">seafloor</tspan></text>
    <path
       inkscape:connector-curvature="0"
       id="path3761-1"
       d="M 1118.604,-104.41402 C 1032.0776,72.412867 1032.0776,72.412867 1032.0776,72.412867"
       style="fill:none;stroke:#000000;stroke-width:7.63667488;stroke-linecap:butt;stroke-linejoin:miter;stroke-miterlimit:4;stroke-opacity:1;stroke-dasharray:none;marker-start:none;marker-end:url(#Arrow1Mend)" />
    <text
       sodipodi:linespacing="125%"
       id="text4603"
       y="-116.87276"
       x="883.76776"
       style="font-size:64px;font-style:normal;font-weight:normal;line-height:125%;letter-spacing:0px;word-spacing:0px;fill:#000000;fill-opacity:1;stroke:none;font-family:Sans"
       xml:space="preserve"><tspan
         y="-116.87276"
         x="883.76776"
         id="tspan4605"
         sodipodi:role="line">undisturbed water surface</tspan></text>
    <path
       sodipodi:nodetypes="cssssssssssssssssscssscsssssssssssssssssssssssssssssssssssssssssssssssssssssssssscsssssssssssssssssssssscsssssscssssssssssssssscssssccsssssssssscssscsssssssssssccsccsssssssssssssssssssssssscsscccssssccscssssssssscsscsssscssssssscsscsssssccssscsssssssscscccsscssccccsscsscsscccccccscccsccscccscccccssccscccssccccccsssssssssccsssccsssscscsssssccsssccssssssssc"
       inkscape:connector-curvature="0"
       id="path4607"
       d="m 54.285714,89.50504 c 39.047619,0 78.095236,0 117.142856,0 8.57143,0 17.14286,0 25.71429,0 1.90476,0 3.80952,0 5.71428,0 1.90476,0 3.90727,0.602338 5.71429,0 1.27775,-0.425918 1.65246,-2.254804 2.85714,-2.857143 0.85184,-0.425918 1.90476,0 2.85714,0 0.95239,0 1.90477,0 2.85715,0 4.7619,0 9.52381,0 14.28571,0 0.95238,0 2.00531,0.425918 2.85714,0 1.20468,-0.602339 1.65247,-2.254804 2.85715,-2.857143 1.79577,-0.897889 9.63279,0.897889 11.42857,0 2.40935,-1.204677 3.15878,-4.86245 5.71428,-5.714286 1.80702,-0.602338 3.90727,0.602339 5.71429,0 1.27775,-0.425917 1.65247,-2.254804 2.85714,-2.857143 0.85184,-0.425917 2.00531,0.425918 2.85715,0 11.89074,-5.945372 -3.05439,0.197245 2.85714,-5.714285 1.34687,-1.34687 4.36741,1.34687 5.71428,0 0.67344,-0.673435 0,-1.904762 0,-2.857143 1.90477,0 4.01062,0.851835 5.71429,0 0.85184,-0.425918 -0.67344,-2.183708 0,-2.857143 1.50585,-1.505846 3.94236,-1.67586 5.71429,-2.857143 1.12066,-0.747109 1.90476,-1.904762 2.85714,-2.857143 1.90476,-0.952381 3.94236,-1.675859 5.71428,-2.857143 2.24133,-1.494218 3.15878,-4.86245 5.71429,-5.714285 1.80702,-0.602339 4.01061,0.851835 5.71429,0 0.85183,-0.425918 -0.42592,-2.005308 0,-2.857143 0.60233,-1.204677 1.90476,-1.904762 2.85714,-2.857143 0.95238,-0.952381 1.65246,-2.254804 2.85714,-2.857143 0.85184,-0.425918 2.18371,0.673435 2.85714,0 0.67344,-0.673435 -0.67343,-2.183708 0,-2.857143 1.50585,-1.505846 4.20844,-1.351296 5.71429,-2.857143 0.67344,-0.673435 -0.67344,-2.183707 0,-2.857142 0.67344,-0.673435 2.00531,0.425917 2.85714,0 1.20468,-0.602339 1.65247,-2.254805 2.85715,-2.857143 0.85183,-0.425918 2.1837,0.673435 2.85714,0 0.67343,-0.673435 -0.42592,-2.005308 0,-2.857143 3.15865,-6.3173 1.77326,-0.886633 5.71428,-2.857143 11.89075,-5.945372 -3.05438,0.197245 2.85715,-5.714286 0.67343,-0.673435 2.0053,0.425918 2.85714,0 2.40935,-1.204677 3.30493,-4.509608 5.71429,-5.714285 0.85183,-0.425918 2.1837,0.673435 2.85714,0 0.67343,-0.673435 -0.67344,-2.183708 0,-2.8571432 0.67343,-0.6734351 2.18371,0.6734352 2.85714,0 0.67344,-0.6734351 -0.67343,-2.1837079 0,-2.8571429 0.67344,-0.673435 2.18371,0.673435 2.85714,0 5.91153,-5.91153026 -9.0336,0.2310864 2.85715,-5.71428571 3.94102,-1.97051009 2.55563,3.46015711 5.71428,-2.85714289 0.42592,-0.8518354 -0.67343,-2.1837078 0,-2.8571428 1.50585,-1.5058465 3.94236,-1.6758597 5.71429,-2.8571429 1.44702,-0.9646819 4.26726,-4.7496036 5.71428,-5.7142856 1.77193,-1.181283 3.94237,-1.67586 5.71429,-2.857143 2.46543,-1.643619 6.33975,-6.339753 8.57143,-8.571429 0.95238,-0.95238 1.65246,-2.254804 2.85714,-2.857142 0.85184,-0.425918 2.18371,0.673435 2.85714,0 5.91153,-5.911531 -9.0336,0.231086 2.85715,-5.714286 0.85183,-0.425918 2.0053,0.425918 2.85714,0 1.20468,-0.602339 1.65247,-2.254804 2.85714,-2.857143 0.85184,-0.425918 2.18371,0.673435 2.85715,0 1.50584,-1.505846 1.35129,-4.208439 2.85714,-5.714286 1.34687,-1.34687 4.86245,1.703671 5.71428,0 0.85184,-1.703671 -1.34687,-4.367415 0,-5.714285 1.34687,-1.34687 4.01062,0.851835 5.71429,0 0.85184,-0.425918 -0.85184,-2.431226 0,-2.857143 1.70367,-0.851836 4.01061,0.851835 5.71429,0 0.85183,-0.425918 -0.67344,-2.183708 0,-2.857143 0.67343,-0.673435 2.0053,0.425918 2.85714,0 1.20468,-0.602339 1.65246,-2.254804 2.85714,-2.857143 1.70367,-0.851835 4.36742,1.34687 5.71429,0 0.67343,-0.673435 -0.67344,-2.183708 0,-2.857143 0.67343,-0.673435 2.1837,0.673435 2.85714,0 0.67344,-0.673435 -0.85184,-2.431225 0,-2.857143 1.70367,-0.851835 3.90727,0.602339 5.71429,0 1.27775,-0.425917 1.65246,-2.254804 2.85714,-2.857143 1.13283,-0.566416 7.98732,0.584105 8.57143,0 0.67343,-0.673435 -0.67344,-2.183707 0,-2.857142 1.34687,-1.34687 4.01061,0.851835 5.71428,0 1.20468,-0.602339 1.65247,-2.254805 2.85715,-2.857143 0.85183,-0.425918 2.1837,0.673435 2.85714,0 0.67343,-0.673435 -0.85184,-2.431225 0,-2.857143 1.70367,-0.851836 3.90727,0.602339 5.71428,0 1.27776,-0.425918 1.57939,-2.431225 2.85715,-2.857143 13.00652,0 0.1634,1.34687 8.57143,-2.857143 2.28571,-1.142857 6.28571,1.142857 8.57142,0 1.20468,-0.602338 1.65247,-2.254804 2.85715,-2.857143 0.81772,-0.408861 12.75939,0 14.28571,0 10.47619,0 20.95238,0 31.42857,0 2.33857,0 16.30687,-0.417993 17.14286,0 0.85184,0.425918 -0.67344,2.183708 0,2.857143 1.34687,1.34687 4.36742,-1.34687 5.71429,0 1.34687,1.34687 -1.34687,4.367416 0,5.714286 1.34687,1.34687 4.01061,-0.851836 5.71428,0 1.20468,0.602339 1.65247,2.254804 2.85714,2.857143 0.85184,0.425917 2.18371,-0.673435 2.85715,0 0.67343,0.673435 -0.67344,2.183708 0,2.857143 0.67343,0.673435 2.0053,-0.425918 2.85714,0 11.89074,5.945372 -3.05439,-0.197245 2.85714,5.714285 0.67344,0.673435 2.18371,-0.673435 2.85715,0 0.67343,0.673435 -0.67344,2.183708 0,2.857143 0.67343,0.673435 2.1837,-0.673435 2.85714,0 1.50585,1.505847 1.08522,4.533003 2.85714,5.714286 1.58486,1.056572 4.36742,-1.34687 5.71429,0 1.34687,1.34687 -0.85184,4.010615 0,5.714286 0.42591,0.851835 2.1837,-0.673435 2.85714,0 1.50585,1.505846 1.3513,4.208439 2.85714,5.714285 6.91897,3.459482 4.20844,1.351297 8.57143,5.714286 0.95238,0.952381 2.25481,1.652466 2.85714,2.857143 0.42592,0.851835 -0.85183,2.431225 0,2.857143 1.70368,0.851835 4.01062,-0.851836 5.71429,0 0.85184,0.425917 -0.42592,2.005307 0,2.857143 0.60234,1.204677 1.90476,1.904762 2.85714,2.857142 0.95238,0.952381 1.65247,2.254805 2.85715,2.857143 7.61904,0 -0.95239,-0.952381 2.85714,2.857143 0.67343,0.673435 2.43122,-0.851835 2.85714,0 0.85184,1.703671 -0.85183,4.010615 0,5.714286 0.85184,1.703671 4.36742,-1.34687 5.71429,0 0.67343,0.673435 -0.42592,2.005307 0,2.857143 0.60234,1.204677 1.90476,1.9047617 2.85714,2.8571426 0.95238,0.952381 1.65247,2.2548043 2.85714,2.8571429 0.85184,0.4259177 2.43123,-0.8518354 2.85715,0 0.85183,1.7036708 -1.34687,4.36741563 0,5.71428569 1.34687,1.34687001 4.36741,-1.34687006 5.71428,0 1.34687,1.34687001 -1.05657,4.12942801 0,5.71428571 1.18128,1.7719248 3.94236,1.6758597 5.71429,2.8571429 6.5639,4.3759362 -1.22515,1.6319942 5.71428,8.5714282 0.67344,0.673435 2.43123,-0.851835 2.85715,0 0.85183,1.703671 -0.85184,4.010615 0,5.714286 0.42591,0.851835 2.1837,-0.673435 2.85714,0 0,7.619048 -0.95238,-0.952381 2.85714,2.857143 1.34687,1.34687 -1.34687,4.367416 0,5.714286 0.67344,0.673435 2.18371,-0.673435 2.85714,0 0.67344,0.673435 -0.42591,2.005307 0,2.857142 0.60234,1.204678 2.11004,1.73648 2.85715,2.857143 0.95238,1.904762 1.90476,3.809524 2.85714,5.714286 0,0.952381 -0.42592,2.005307 0,2.857143 1.20468,2.409354 4.50961,3.304931 5.71429,5.714286 0.42591,0.851835 -0.30117,1.953635 0,2.857142 0.67343,2.020306 2.1837,3.693981 2.85714,5.714286 0.60234,1.807016 -0.85184,4.010615 0,5.714286 0.60234,1.204677 2.11003,1.736479 2.85714,2.857143 1.18128,1.771925 1.67586,3.942361 2.85714,5.714285 0.74711,1.120664 2.25481,1.652466 2.85715,2.857143 3.5185,7.037005 -8.29353,-2.579242 2.85714,8.571429 0.67344,0.673435 2.43123,-0.851836 2.85714,0 0.85184,1.703671 -0.60234,3.90727 0,5.714286 -1.06792,6.224318 4.76191,0.952381 5.71429,2.857142 0.85183,1.703671 -0.60234,3.90727 0,5.714285 0.42592,1.27775 2.2548,1.65247 2.85714,2.85714 0.42592,0.85184 -0.42592,2.00531 0,2.85715 9.47595,9.47595 -1.34687,-2.69374 2.85714,5.71428 0.60234,1.20468 2.25481,1.65247 2.85715,2.85715 0.85183,1.70367 -1.34687,4.36741 0,5.71428 0.67343,0.67344 2.43122,-0.85183 2.85714,0 0.85184,1.70367 -0.60234,3.90727 0,5.71429 0.42592,1.27775 2.11003,1.73648 2.85714,2.85714 1.18129,1.77192 1.67586,3.94236 2.85715,5.71429 0.7471,1.12066 2.2548,1.65246 2.85714,2.85714 0.42592,0.85183 -0.42592,2.00531 0,2.85714 0.60234,1.20468 2.43122,1.57939 2.85714,2.85714 0.60234,1.80702 -0.85183,4.01062 0,5.71429 0.42592,0.85184 2.18371,-0.67344 2.85714,0 0.95239,1.90476 1.90477,3.80952 2.85715,5.71429 0.95238,0 2.1837,-0.67344 2.85714,0 1.34687,1.34687 -0.85184,4.01061 0,5.71428 6.50326,6.50327 0.75514,-0.59173 2.85714,5.71429 -5.17387,11.9536 4.50961,3.30493 5.71429,5.71428 0.85183,1.70367 -0.60234,3.90727 0,5.71429 0.85183,2.5555 4.86245,3.15878 5.71428,5.71428 0.60234,1.80702 -0.60233,3.90727 0,5.71429 1.52622,4.57864 4.18808,1.13564 5.71429,5.71429 0.60234,1.80701 -1.05657,4.12942 0,5.71428 1.18128,1.77193 4.533,1.08522 5.71429,2.85714 1.05657,1.58486 -0.60234,3.90727 0,5.71429 0.85183,2.55551 4.5096,3.30493 5.71428,5.71429 0.42592,0.85183 -0.42592,2.0053 0,2.85714 0.60234,1.20468 2.25481,1.65246 2.85714,2.85714 0.42592,0.85184 -0.42591,2.00531 0,2.85714 1.20468,2.40936 4.50961,3.30494 5.71429,5.71429 0.42592,0.85184 -0.67344,2.18371 0,2.85714 0.67344,0.67344 2.43123,-0.85183 2.85714,0 0.85184,1.70367 -0.60234,3.90727 0,5.71429 2.97269,8.91806 1.90476,-0.95238 5.71429,2.85714 0.67343,0.67344 -0.42592,2.00531 0,2.85714 0.42941,0.85883 5.28487,4.85547 5.71428,5.71429 0.42592,0.85184 -0.67343,2.18371 0,2.85714 0.67344,0.67344 2.00531,-0.42592 2.85715,0 1.20467,0.60234 1.90476,1.90476 2.85714,2.85715 0.95238,0.95238 2.2548,1.65246 2.85714,2.85714 0.42592,0.85183 -0.67343,2.18371 0,2.85714 0.67344,0.67344 2.18371,-0.67343 2.85715,0 0.67343,0.67344 -0.67344,2.18371 0,2.85714 1.50584,1.50585 4.20843,1.3513 5.71428,2.85715 0.67344,0.67343 -0.67343,2.1837 0,2.85714 0.67344,0.67343 2.18371,-0.67344 2.85714,0 0.67344,0.67343 0,1.90476 0,2.85714 0.95239,0 2.00531,-0.42592 2.85715,0 11.89074,5.94537 -3.05439,-0.19724 2.85714,5.71429 0.67344,0.67343 2.00531,-0.42592 2.85714,0 1.20468,0.60234 1.65247,2.2548 2.85715,2.85714 0.85183,0.42592 2.1837,-0.67343 2.85714,0 0.67343,0.67344 -0.67344,2.18371 0,2.85714 0.67343,0.67344 2.00531,-0.42591 2.85714,0 1.20468,0.60234 1.65247,2.25481 2.85714,2.85715 0.85184,0.42591 2.18371,-0.67344 2.85715,0 0.67343,0.67343 -0.67344,2.1837 0,2.85714 1.42857,1.42857 7.14285,-1.42857 8.57143,0 0.67343,0.67343 -0.67344,2.18371 0,2.85714 1.42857,1.42857 7.14285,-1.42857 8.57142,0 0.67344,0.67344 -0.67343,2.18371 0,2.85715 1.42858,1.42857 7.14286,-1.42858 8.57143,0 0.67344,0.67343 -0.67343,2.1837 0,2.85714 0.95875,0.95874 4.75554,-0.95875 5.71429,0 0.67343,0.67343 -0.67344,2.18371 0,2.85714 0.67343,0.67344 1.90476,0 2.85714,0 1.52633,0 13.46799,-0.40886 14.28572,0 1.20467,0.60234 1.65246,2.25481 2.85714,2.85714 0.85183,0.42592 1.90476,0 2.85714,0 1.90476,0 3.80953,0 5.71429,0 0.95238,0 2.1837,0.67344 2.85714,0 0.67344,-0.67343 -0.67344,-2.1837 0,-2.85714 0.67344,-0.67343 2.18371,0.67344 2.85714,0 0.67344,-0.67343 -0.67343,-2.18371 0,-2.85714 0.96349,-0.96349 4.7508,0.96349 5.71429,0 0.67343,-0.67344 -0.67344,-2.18371 0,-2.85714 1.34687,-1.34687 4.01061,0.85183 5.71428,0 11.89075,-5.94538 -3.05438,0.19724 2.85715,-5.71429 1.34687,-1.34687 4.01061,0.85184 5.71428,0 2.31238,-1.15619 3.40191,-4.5581 5.71429,-5.71429 0.85183,-0.42591 2.18371,0.67344 2.85714,0 0.67344,-0.67343 -0.42592,-2.0053 0,-2.85714 5.94537,-11.89074 -0.19724,3.05439 5.71429,-2.85714 0.67343,-0.67344 -0.67344,-2.18371 0,-2.85714 0.67343,-0.67344 2.1837,0.67343 2.85714,0 0.67344,-0.67344 -0.67344,-2.18371 0,-2.85715 0.67344,-0.67343 2.00531,0.42592 2.85714,0 2.40936,-1.20467 3.30493,-4.50961 5.71429,-5.71428 0.85183,-0.42592 2.18371,0.67343 2.85714,0 0.67344,-0.67344 -0.67343,-2.18371 0,-2.85715 0.67344,-0.67343 2.00531,0.42592 2.85714,0 1.20468,-0.60233 1.65247,-2.2548 2.85715,-2.85714 3.94102,-1.97051 2.55563,3.46016 5.71428,-2.85714 0.42592,-0.85184 -0.67343,-2.18371 0,-2.85714 0.67344,-0.67344 2.18371,0.67343 2.85715,0 0.67343,-0.67344 -0.67344,-2.18371 0,-2.85715 0.67343,-0.67343 2.0053,0.42592 2.85714,0 1.20468,-0.60234 1.90476,-1.90476 2.85714,-2.85714 2.23168,-2.23168 6.106,-6.92781 8.57143,-8.57143 1.77192,-1.18128 4.20844,-1.3513 5.71429,-2.85714 5.91153,-5.91153 -9.03361,0.23108 2.85714,-5.71429 0.85183,-0.42592 2.00531,0.42592 2.85714,0 1.20468,-0.60234 1.90476,-1.90476 2.85714,-2.85714 0.95239,-0.95238 2.25481,-1.65247 2.85715,-2.85714 0.42591,-0.85184 -0.67344,-2.18371 0,-2.85715 0.67343,-0.67343 2.1837,0.67344 2.85714,0 0.6734,-0.67343 -0.67344,-2.1837 0,-2.85714 0.6734,-0.67343 2.0053,0.42592 2.8571,0 1.2047,-0.60234 1.9048,-1.90476 2.8572,-2.85714 0.9524,-0.95238 2.2548,-1.65247 2.8571,-2.85714 0.4259,-0.85184 -0.6734,-2.18371 0,-2.85715 1.5059,-1.50584 4.2085,-1.35129 5.7143,-2.85714 0.6734,-0.67344 -0.6734,-2.18371 0,-2.85714 0.6734,-0.67344 2.1837,0.67343 2.8572,0 0.6734,-0.67344 -0.6735,-2.18371 0,-2.85715 0.6734,-0.67343 2.0053,0.42592 2.8571,0 11.8907,-5.94537 -3.0544,0.19725 2.8571,-5.71428 0.6735,-0.67344 2.1838,0.67343 2.8572,0 0.6734,-0.67344 -0.6734,-2.18371 0,-2.85714 0.6734,-0.67344 2.1837,0.67343 2.8571,0 6.9395,-6.93944 -0.8496,-4.1955 5.7143,-8.57143 1.7719,-1.18129 4.2085,-1.3513 5.7143,-2.85715 0.6734,-0.67343 -0.4259,-2.0053 0,-2.85714 0.763,-1.52595 7.0672,-7.06724 8.5714,-8.57143 0.9524,-0.95238 1.9048,-1.90476 2.8572,-2.85714 0.9524,-0.95238 1.6524,-2.2548 2.8571,-2.85714 0.8518,-0.42592 2.1837,0.67343 2.8572,0 1.3468,-1.34687 -1.3469,-4.36742 0,-5.71429 0.6734,-0.67343 2.0053,0.42592 2.8571,0 2.4094,-1.20468 3.3049,-4.50961 5.7143,-5.71428 0.8518,-0.42592 2.1837,0.67343 2.8571,0 0.6735,-0.67344 -0.4259,-2.00531 0,-2.85715 0.6024,-1.20467 1.9048,-1.90476 2.8572,-2.85714 0.9524,-0.95238 1.6524,-2.2548 2.8571,-2.85714 0.8518,-0.42592 2.1837,0.67343 2.8572,0 0.6734,-0.67344 -0.6735,-2.18371 0,-2.85715 0.6734,-0.67343 2.1837,0.67344 2.8571,0 0.6734,-0.67343 -0.4259,-2.0053 0,-2.85714 5.9454,-11.89074 -0.1972,3.05439 5.7143,-2.85714 0.6734,-0.67344 -0.6734,-2.18371 0,-2.85714 0.6734,-0.67344 2.1837,0.67343 2.8571,0 0.6735,-0.67344 -0.6734,-2.18371 0,-2.85715 5.9116,-5.91153 -0.2311,9.0336 5.7143,-2.85714 0.4259,-0.85184 -0.6734,-2.18371 0,-2.85714 0.6734,-0.67344 1.9536,0.30117 2.8572,0 2.0203,-0.67344 3.9423,-1.67586 5.7142,-2.85715 5.6602,0.28521 1.3513,-4.20844 2.8572,-5.71428 0.6734,-0.67344 2.0053,0.42592 2.8571,0 1.2047,-0.60234 1.6525,-2.25481 2.8572,-2.85714 0.8518,-0.42592 2.1837,0.67343 2.8571,0 0.6734,-0.67344 -0.6734,-2.18371 0,-2.85715 0.6734,-0.67343 2.0053,0.42592 2.8572,0 2.4093,-1.20467 3.3049,-4.50961 5.7142,-5.71428 0.8519,-0.42592 2.1838,0.67343 2.8572,0 0.6734,-0.67344 -0.6734,-2.18371 0,-2.85715 1.3469,-1.34687 4.3674,1.34687 5.7143,0 0.6734,-0.67343 -0.6735,-2.1837 0,-2.85714 0.6734,-0.67343 2.1837,0.67344 2.8571,0 0.6734,-0.67343 -0.6734,-2.183707 0,-2.857142 0.6734,-0.673435 2.1837,0.673435 2.8572,0 0.6734,-0.673435 -0.6735,-2.183707 0,-2.857143 1.3468,-1.34687 4.3674,1.346871 5.7142,0 0.6735,-0.673435 -0.6734,-2.183707 0,-2.857142 1.4286,-1.428572 7.1429,1.428571 8.5715,0 0.6734,-0.673435 -0.6735,-2.183708 0,-2.857143 0.6734,-0.673435 1.9047,0 2.8571,0 5.7143,0 11.4286,0 17.1429,0 2.9069,0 8.3051,0 5.7143,0 -1.9048,0 -7.6191,0 -5.7143,0 2.8571,0 5.7143,0 8.5714,0 0.9524,0 2.8571,-0.952381 2.8571,0 0,0.952381 -3.8095,0 -2.8571,0 5.7143,0 11.4286,0 17.1429,0 0.9523,0 1.9047,0 2.8571,0 0.9524,0 2.1837,-0.673435 2.8571,0 0.6735,0.673435 -0.6734,2.183708 0,2.857143 0.1295,0.12949 12.9386,0 14.2858,0 40.9523,0 81.9047,0 122.8571,0 12.381,0 24.7619,0 37.1429,0 1.9872,0 13.2524,0.516619 14.2857,0 1.2046,-0.602339 1.6524,-2.254805 2.8571,-2.857143 0.7387,-0.369358 15.1177,0 17.1429,0 13.3333,0 26.6666,0 40,0 25.7143,0 51.4285,0 77.1428,0 7.6191,0 15.2381,0 22.8572,0 1.494,0 10.6773,0.37563 11.4285,0 1.2047,-0.602339 1.6525,-2.254804 2.8572,-2.857143 1.7958,-0.897889 9.6328,0.897889 11.4286,0 1.2046,-0.602339 4.5095,3.459482 5.7142,2.857143 0.6404,-0.320186 7.8925,0 8.5715,0 10.4762,0 23.8095,0 34.2856,0 33.3334,0 58.0953,2.857143 91.4286,2.857143 10.4762,0 26.6667,-2.857143 37.1429,-2.857143 2.691,0 12.6604,-6.25606 14.2857,-5.714286 1.2778,0.425918 1.6525,2.254804 2.8572,2.857143 0.8695,0.434763 7.2847,0 8.5714,0 5.7143,0 11.4286,0 17.1429,0 13.3333,0 26.6666,0 40,0 2.0251,0 16.4041,-0.369358 17.1428,0 1.2047,0.602339 1.6525,2.254804 2.8572,2.857143 1.0332,0.516619 12.2984,0 14.2857,0 3.8095,0 7.619,0 11.4285,0 0.9524,0 1.9048,0 2.8572,0 0.9524,0 2.8571,-0.952381 2.8571,0 0,0.952381 -1.9047,0 -2.8571,0 -0.9524,0 -1.9048,0 -2.8572,0 -0.9523,0 -3.8095,0 -2.8571,0 1.9048,0 7.619,0 5.7143,0 -2.8572,0 -5.7143,0 -8.5714,0"
       style="fill:none;stroke:#0000ff;stroke-width:5;stroke-linecap:butt;stroke-linejoin:miter;stroke-miterlimit:4;stroke-opacity:1;stroke-dasharray:none;marker-start:none" />
    <path
       inkscape:connector-curvature="0"
       id="path3761-1-9"
       d="m 743.37773,-216.36253 c -86.5264,176.826879 -86.5264,176.826879 -86.5264,176.826879"
       style="stroke-linejoin:miter;marker-end:url(#Arrow1Mendi);stroke-opacity:1;marker-start:none;stroke:#0000ff;stroke-linecap:butt;stroke-miterlimit:4;stroke-dasharray:none;stroke-width:7.63667488000000020;fill:none" />
    <text
       sodipodi:linespacing="125%"
       id="text4633"
       y="-225.79083"
       x="676.18707"
       style="font-size:64px;font-style:normal;font-weight:normal;line-height:125%;letter-spacing:0px;word-spacing:0px;fill:#0000ff;fill-opacity:1;stroke:none;font-family:Sans"
       xml:space="preserve"><tspan
         y="-225.79083"
         x="676.18707"
         id="tspan4635"
         sodipodi:role="line">wave</tspan></text>
    <path
       inkscape:connector-curvature="0"
       id="path4637"
       d="M 522.85858,792.40666 C 519.99856,-73.886787 519.99856,-73.886787 519.99856,-73.886787"
       style="fill:none;stroke:#000000;stroke-width:4.97960997;stroke-linecap:butt;stroke-linejoin:miter;stroke-miterlimit:4;stroke-opacity:1;stroke-dasharray:none;marker-start:url(#Arrow1Mstart);marker-end:url(#Arrow1Mend-4)" />
    <text
       sodipodi:linespacing="125%"
       id="text5015"
       y="372.36218"
       x="460"
       style="font-size:64px;font-style:normal;font-weight:normal;line-height:125%;letter-spacing:0px;word-spacing:0px;fill:#000000;fill-opacity:1;stroke:none;font-family:Sans"
       xml:space="preserve"><tspan
         y="372.36218"
         x="460"
         id="tspan5017"
         sodipodi:role="line">D</tspan></text>
    <path
       inkscape:connector-curvature="0"
       id="path5019"
       d="m 542.85967,798.15391 c -2.8622,-697.29774 -2.8622,-697.29774 -2.8622,-697.29774"
       style="fill:none;stroke:#ff0000;stroke-width:4.96444607;stroke-linecap:butt;stroke-linejoin:miter;stroke-miterlimit:4;stroke-opacity:1;stroke-dasharray:none;marker-start:url(#Arrow1Mstarty);marker-end:url(#Arrow1Mend-4H)" />
    <text
       sodipodi:linespacing="125%"
       id="text5397"
       y="460.93362"
       x="562.85718"
       style="font-size:64px;font-style:normal;font-weight:normal;line-height:125%;letter-spacing:0px;word-spacing:0px;fill:#000000;fill-opacity:1;stroke:none;font-family:Sans"
       xml:space="preserve"><tspan
         style="fill:#ff0000;fill-opacity:1;stroke:#ff0000;stroke-opacity:1"
         y="460.93362"
         x="562.85718"
         id="tspan5399"
         sodipodi:role="line">h</tspan></text>
    <path
       style="fill:none;stroke:#009e00;stroke-width:4.8615346;stroke-linecap:butt;stroke-linejoin:miter;stroke-miterlimit:4;stroke-opacity:1;stroke-dasharray:none;marker-start:url(#Arrow1Mstartq);marker-end:url(#Arrow1Mend-4W)"
       d="m 540,89.808652 c 0,-163.464368 0,-163.464368 0,-163.464368"
       id="path5473"
       inkscape:connector-curvature="0" />
    <text
       xml:space="preserve"
       style="font-size:64px;font-style:normal;font-weight:normal;line-height:125%;letter-spacing:0px;word-spacing:0px;fill:#009e00;fill-opacity:1;stroke:none;font-family:Sans"
       x="553.5636"
       y="30.087811"
       id="text6026"
       sodipodi:linespacing="125%"><tspan
         sodipodi:role="line"
         id="tspan6028"
         x="553.5636"
         y="30.087811">η</tspan></text>
    <path
       style="fill:none;stroke:#000000;stroke-width:5;stroke-linecap:butt;stroke-linejoin:miter;stroke-miterlimit:4;stroke-opacity:1;stroke-dasharray:none;marker-end:url(#Arrow1Mend-4)"
       d="M 40.406102,93.68489 C 42.426407,-27.533423 42.426407,-27.533423 42.426407,-27.533423"
       id="path3022"
       inkscape:connector-curvature="0" />
    <text
       xml:space="preserve"
       style="font-size:64px;font-style:normal;font-weight:normal;line-height:125%;letter-spacing:0px;word-spacing:0px;fill:#000000;fill-opacity:1;stroke:none;font-family:Sans"
       x="26.263962"
       y="-47.556824"
       id="text4044"
       sodipodi:linespacing="125%"><tspan
         sodipodi:role="line"
         id="tspan4046"
         x="26.263962"
         y="-47.556824">z</tspan></text>
    <text
       xml:space="preserve"
       style="font-size:64px;font-style:normal;font-weight:normal;line-height:125%;letter-spacing:0px;word-spacing:0px;fill:#000000;fill-opacity:1;stroke:none;font-family:Sans"
       x="1947.799"
       y="109.31104"
       id="text4044-1"
       sodipodi:linespacing="125%"><tspan
         sodipodi:role="line"
         id="tspan4046-7"
         x="1947.799"
         y="109.31104">x</tspan></text>
  </g>
</svg>
